# xmcd
#
# Track frame offsets:
#	150
#	14743
#	29356
#	42482
#	54057
#	65325
#	80074
#	93699
#	108259
#	123250
#	135414
#	151436
#	166368
#	180183
#	194606
#	207738
#
# Disc length: 2932 seconds
#
# Revision: 4
# Processed by: cddbd v1.5.2PL0 Copyright (c) Steve Scherf et al.
# Submitted via: EZCDAudioConverter 7.0.6.1
#
DISCID=dc0b7210
DTITLE=Dylan Scott - Dylan Scott (Deluxe Edition)
DYEAR=2017
DGENRE=Country
TTITLE0=My Girl
TTITLE1=Crazy Over Me
TTITLE2=Lay It On Me
TTITLE3=Ball Cap
TTITLE4=Hooked
TTITLE5=Sleeping Beauty
TTITLE6=My Town
TTITLE7=Beer Buddies
TTITLE8=Passenger Seat
TTITLE9=Can't Take Her Anywhere
TTITLE10=I Lost You
TTITLE11=Do You Think About Me
TTITLE12=Living Room
TTITLE13=Freak Show
TTITLE14=Back
TTITLE15=Rules
EXTD=
EXTT0=
EXTT1=
EXTT2=
EXTT3=
EXTT4=
EXTT5=
EXTT6=
EXTT7=
EXTT8=
EXTT9=
EXTT10=
EXTT11=
EXTT12=
EXTT13=
EXTT14=
EXTT15=
PLAYORDER=
